HIERARCHY
ROOT Hips
{
	OFFSET 62.890800 8.863803 43.568401
	CHANNELS 6 Xposition Yposition Zposition Zrotation Xrotation Yrotation
	JOINT Chest
	{
		OFFSET -0.160400 1.630001 7.806301
		CHANNELS 6 Xposition Yposition Zposition Zrotation Xrotation Yrotation
		JOINT Chest2
		{
			OFFSET 0.000000 0.000000 3.197998
			CHANNELS 6 Xposition Yposition Zposition Zrotation Xrotation Yrotation
			JOINT Neck
			{
				OFFSET 0.000000 0.000001 7.440701
				CHANNELS 6 Xposition Yposition Zposition Zrotation Xrotation Yrotation
				JOINT Head
				{
					OFFSET 0.000000 0.000000 2.173901
					CHANNELS 6 Xposition Yposition Zposition Zrotation Xrotation Yrotation
					End Site
					{
						OFFSET 0.000000 0.000001 10.420303
					}
				}
			}
			JOINT LeftCollar
			{
				OFFSET 2.426399 -1.880099 4.759399
				CHANNELS 6 Xposition Yposition Zposition Zrotation Xrotation Yrotation
				JOINT LeftShoulder
				{
					OFFSET 4.420197 0.000000 0.000000
					CHANNELS 6 Xposition Yposition Zposition Zrotation Xrotation Yrotation
					JOINT LeftElbow
					{
						OFFSET 0.000000 -0.000001 -10.347099
						CHANNELS 6 Xposition Yposition Zposition Zrotation Xrotation Yrotation
						JOINT LeftWrist
						{
							OFFSET 0.000000 -0.000001 -12.496300
							CHANNELS 6 Xposition Yposition Zposition Zrotation Xrotation Yrotation
							End Site
							{
								OFFSET 0.000000 0.000000 -2.173901
							}
						}
					}
				}
			}
			JOINT RightCollar
			{
				OFFSET -2.781502 -1.903799 5.072601
				CHANNELS 6 Xposition Yposition Zposition Zrotation Xrotation Yrotation
				JOINT RightShoulder
				{
					OFFSET -4.012100 0.000000 0.000000
					CHANNELS 6 Xposition Yposition Zposition Zrotation Xrotation Yrotation
					JOINT RightElbow
					{
						OFFSET 0.000000 -0.000001 -10.346600
						CHANNELS 6 Xposition Yposition Zposition Zrotation Xrotation Yrotation
						JOINT RightWrist
						{
							OFFSET 0.000000 -0.000001 -12.562599
							CHANNELS 6 Xposition Yposition Zposition Zrotation Xrotation Yrotation
							End Site
							{
								OFFSET 0.000000 0.000000 -2.173901
							}
						}
					}
				}
			}
		}
	}
	JOINT LeftHip
	{
		OFFSET 2.047997 -0.047200 -2.693199
		CHANNELS 6 Xposition Yposition Zposition Zrotation Xrotation Yrotation
		JOINT LeftKnee
		{
			OFFSET 0.000000 -0.000001 -18.824400
			CHANNELS 6 Xposition Yposition Zposition Zrotation Xrotation Yrotation
			JOINT LeftAnkle
			{
				OFFSET 0.000000 -0.000002 -19.078199
				CHANNELS 6 Xposition Yposition Zposition Zrotation Xrotation Yrotation
				End Site
				{
					OFFSET 0.000000 -9.342100 0.000001
				}
			}
		}
	}
	JOINT RightHip
	{
		OFFSET -2.129898 -0.022300 -2.538300
		CHANNELS 6 Xposition Yposition Zposition Zrotation Xrotation Yrotation
		JOINT RightKnee
		{
			OFFSET 0.000000 -0.000001 -18.644600
			CHANNELS 6 Xposition Yposition Zposition Zrotation Xrotation Yrotation
			JOINT RightAnkle
			{
				OFFSET 0.000000 -0.000002 -18.801399
				CHANNELS 6 Xposition Yposition Zposition Zrotation Xrotation Yrotation
				End Site
				{
					OFFSET 0.000000 -8.914600 0.000001
				}
			}
		}
	}
}
MOTION
Frames: 10
Frame Time: 0.041667
23.089302 58.776112 46.709953 158.599725 2.372279 -0.921250 -0.160402 1.630007 7.806302 -9.582795 2.903449 6.970859 0.000005 0.000000 3.197991 6.367512 0.674213 0.205982 -0.000004 -0.000002 7.440696 24.066590 25.713598 -6.435703 -0.000002 0.000010 2.173915 5.335504 2.471102 5.906064 2.426400 -1.880103 4.759398 21.666268 -21.905004 -30.898768 4.420200 -0.000005 -0.000002 -33.201020 -14.982677 -108.321179 0.000005 0.000003 -10.347093 23.810868 -21.118182 1.149286 0.000003 0.000001 -12.496308 -231.439102 18.031192 72.607103 -2.781495 -1.903804 5.072593 -9.621186 3.848289 21.452104 -4.012098 0.000003 -0.000003 54.104831 -22.854769 152.391861 0.000000 0.000002 -10.346604 -55.476057 -8.413317 -6.808722 0.000000 -0.000001 -12.562599 447.345398 -26.130750 -57.289342 2.047994 -0.047200 -2.693202 6.350464 -3.259227 -21.254381 0.000000 -0.000004 -18.824406 202.522035 166.877955 -182.719773 -0.000000 -0.000000 -19.078203 -69.540704 41.745215 35.015118 -2.129899 -0.022299 -2.538301 -361.877547 -3.025956 6.239842 0.000006 0.000002 -18.644600 141.955674 167.984896 173.974262 -0.000005 -0.000003 -18.801399 33.836935 26.630421 5.785771
23.088303 58.755413 46.710854 158.688544 2.338802 -0.916312 -0.160398 1.629998 7.806301 -9.690514 2.886199 6.947843 0.000008 -0.000006 3.197997 6.345667 0.750639 0.203865 -0.000005 -0.000007 7.440708 24.068176 25.704676 -6.375860 -0.000004 -0.000000 2.173915 5.467683 2.504484 5.366073 2.426403 -1.880102 4.759394 21.652680 -21.908696 -30.901743 4.420190 0.000000 -0.000006 -32.924343 -14.723378 -108.312040 0.000002 0.000007 -10.347088 23.520467 -21.268586 1.065191 -0.000003 0.000002 -12.496295 -230.754225 17.823683 72.749759 -2.781499 -1.903800 5.072598 -9.601126 3.827813 21.482880 -4.012099 0.000009 0.000002 54.358877 -22.780648 152.438853 0.000002 -0.000002 -10.346610 -55.451939 -8.264688 -6.467161 -0.000004 -0.000000 -12.562602 447.572871 -26.063211 -56.947778 2.047997 -0.047198 -2.693200 6.192529 -3.199015 -21.294375 -0.000001 0.000003 -18.824400 202.523182 166.911874 -182.683354 0.000001 -0.000002 -19.078201 -69.472361 41.703445 35.056622 -2.129894 -0.022300 -2.538304 -362.095048 -3.061682 6.221614 0.000003 0.000005 -18.644602 141.839069 167.949366 174.028698 -0.000001 0.000007 -18.801399 34.077422 26.683488 5.825973
23.085297 58.737820 46.711552 158.623439 2.342042 -0.896261 -0.160398 1.630001 7.806294 -9.650462 2.949442 6.951519 0.000005 0.000008 3.198000 6.311742 0.737247 0.202559 0.000002 0.000000 7.440708 24.158763 25.602737 -6.419781 -0.000011 0.000006 2.173907 5.400117 2.499446 5.394502 2.426399 -1.880101 4.759407 21.761464 -21.915012 -30.795581 4.420194 0.000004 0.000002 -32.792483 -14.584850 -108.415975 0.000003 -0.000004 -10.347094 23.189460 -21.416031 0.960258 -0.000008 0.000000 -12.496296 -230.199396 17.822624 72.732321 -2.781498 -1.903802 5.072605 -9.631814 3.806878 21.389987 -4.012103 0.000013 0.000007 54.602636 -22.695344 152.567534 0.000002 -0.000003 -10.346599 -55.485233 -8.152178 -6.246246 0.000003 -0.000000 -12.562591 447.749171 -26.045313 -56.638285 2.047996 -0.047194 -2.693203 6.276596 -3.231414 -21.340474 -0.000001 -0.000001 -18.824404 202.516926 166.916245 -182.669899 0.000001 -0.000003 -19.078203 -69.512495 41.643790 35.166609 -2.129900 -0.022295 -2.538306 -362.034396 -3.087206 6.198444 0.000003 -0.000002 -18.644604 141.730196 167.947344 174.045269 -0.000006 0.000003 -18.801399 34.189448 26.714726 5.854931
23.080196 58.728714 46.710556 158.724635 2.255429 -0.884433 -0.160392 1.630004 7.806302 -9.954790 3.072415 6.955664 0.000008 0.000000 3.198006 6.400089 0.740070 0.205869 -0.000001 0.000007 7.440701 24.391811 25.455220 -6.522082 -0.000002 0.000005 2.173914 5.309135 2.551275 5.481201 2.426396 -1.880088 4.759401 21.939785 -22.219179 -30.639259 4.420189 -0.000000 -0.000002 -32.741943 -14.251069 -108.409234 -0.000000 -0.000007 -10.347099 23.588268 -21.605449 1.185255 -0.000003 0.000004 -12.496299 -230.320864 17.803260 72.575145 -2.781499 -1.903792 5.072605 -9.638599 3.808024 21.341541 -4.012099 0.000001 0.000001 54.663397 -22.761682 152.695190 0.000003 0.000009 -10.346606 -55.162507 -8.186594 -6.264535 -0.000004 0.000002 -12.562587 447.365096 -25.872374 -56.616343 2.048003 -0.047196 -2.693202 5.907720 -2.996061 -21.365726 0.000001 -0.000001 -18.824408 202.541938 166.967184 -182.625079 -0.000006 -0.000000 -19.078203 -69.179380 41.641642 34.940120 -2.129891 -0.022295 -2.538303 -362.039067 -2.973662 6.203361 0.000004 -0.000011 -18.644602 141.649408 167.972424 174.001446 -0.000008 0.000002 -18.801397 34.187368 26.723699 5.867792
23.071198 58.715816 46.709152 158.714007 2.211276 -0.868690 -0.160395 1.629989 7.806311 -10.246487 3.153176 6.940194 0.000013 -0.000006 3.197998 6.598237 0.749565 0.213162 -0.000008 -0.000002 7.440697 24.607063 25.292846 -6.605446 0.000004 0.000002 2.173915 5.039308 2.465381 6.040525 2.426401 -1.880104 4.759386 22.159941 -22.779060 -30.605248 4.420196 -0.000008 -0.000010 -32.951367 -14.029712 -108.181304 -0.000007 -0.000006 -10.347098 23.686114 -21.660898 1.308523 -0.000004 -0.000003 -12.496315 -230.423153 17.877467 72.341443 -2.781502 -1.903802 5.072605 -9.895633 3.640808 21.310409 -4.012094 0.000007 0.000002 54.880167 -22.686699 152.746895 0.000003 0.000001 -10.346589 -54.832742 -8.226272 -6.325743 0.000002 0.000001 -12.562596 446.833270 -25.686972 -56.669629 2.047995 -0.047208 -2.693193 5.630074 -2.805181 -21.376851 -0.000001 -0.000001 -18.824402 202.585911 167.012455 -182.592403 0.000001 -0.000003 -19.078199 -68.862350 41.632527 34.762654 -2.129891 -0.022310 -2.538296 -362.042346 -2.942496 6.202878 0.000002 -0.000002 -18.644604 141.678614 167.961510 173.980969 -0.000005 0.000003 -18.801397 34.188922 26.715373 5.857783
23.062595 58.701214 46.707355 158.690662 2.198452 -0.853848 -0.160392 1.629994 7.806300 -10.287526 3.169934 6.909361 0.000008 -0.000003 3.197996 6.649185 0.693951 0.215681 -0.000006 0.000005 7.440702 24.729687 25.254587 -6.754380 -0.000006 0.000001 2.173907 4.905505 2.479001 6.156769 2.426398 -1.880093 4.759398 22.181360 -22.778584 -30.572900 4.420190 -0.000011 -0.000004 -33.060667 -14.036700 -108.183530 -0.000001 -0.000000 -10.347106 23.862401 -21.582962 1.339143 -0.000005 0.000000 -12.496308 -230.729855 17.976708 72.086179 -2.781501 -1.903794 5.072607 -9.762844 3.835386 21.256013 -4.012100 0.000005 -0.000009 54.520332 -22.743849 152.842162 0.000001 0.000002 -10.346601 -54.585625 -8.339558 -6.528704 0.000001 0.000003 -12.562590 446.091321 -25.795794 -56.801387 2.047997 -0.047204 -2.693199 5.385955 -2.668127 -21.395276 -0.000002 -0.000007 -18.824398 202.665674 167.045841 -182.561859 -0.000000 -0.000014 -19.078201 -68.644801 41.603601 34.691839 -2.129894 -0.022298 -2.538300 -362.025106 -2.936103 6.201545 0.000005 -0.000008 -18.644598 141.744703 167.963395 173.948034 -0.000004 -0.000001 -18.801397 34.147654 26.703950 5.817056
23.051006 58.681610 46.706150 158.637864 2.196496 -0.845381 -0.160403 1.630004 7.806302 -10.283917 3.177726 6.883508 0.000006 -0.000002 3.197999 6.689568 0.633601 0.217862 -0.000004 0.000003 7.440700 24.794017 25.245651 -6.863132 -0.000006 0.000001 2.173907 4.808556 2.511271 6.272279 2.426412 -1.880100 4.759390 22.192019 -22.747708 -30.536369 4.420206 0.000001 -0.000008 -33.155036 -14.071218 -108.202375 0.000004 0.000010 -10.347088 23.975272 -21.525428 1.355501 -0.000003 -0.000002 -12.496309 -230.957273 18.071974 71.913771 -2.781501 -1.903795 5.072595 -9.625083 4.034561 21.220003 -4.012097 0.000003 0.000003 54.138962 -22.830981 152.920409 0.000000 -0.000000 -10.346592 -54.561624 -8.446288 -6.788697 -0.000008 -0.000001 -12.562592 445.801775 -25.743336 -56.974300 2.047995 -0.047197 -2.693191 5.112949 -2.527679 -21.383606 -0.000002 -0.000003 -18.824402 202.765026 167.069501 -182.546641 -0.000001 -0.000007 -19.078205 -68.366464 41.598652 34.530861 -2.129898 -0.022296 -2.538293 -362.162448 -3.010259 6.205144 0.000003 -0.000001 -18.644604 141.868930 167.907797 173.962869 0.000001 -0.000000 -18.801403 34.181012 26.793393 5.798058
23.039192 58.652916 46.707050 158.764264 2.285249 -0.848400 -0.160402 1.629999 7.806298 -10.617209 3.078560 6.840784 0.000008 -0.000002 3.198005 6.836325 0.609734 0.223397 -0.000005 -0.000005 7.440701 24.884066 25.224812 -6.917445 -0.000006 -0.000002 2.173915 4.738155 2.533036 6.354763 2.426398 -1.880104 4.759396 22.294711 -23.023360 -30.506087 4.420200 -0.000002 -0.000004 -33.315802 -14.008801 -108.063032 -0.000000 -0.000008 -10.347101 23.941227 -21.551665 1.388604 -0.000008 -0.000001 -12.496293 -231.063606 18.162475 71.737586 -2.781500 -1.903798 5.072601 -9.580536 4.161881 21.206665 -4.012099 0.000002 -0.000010 53.954335 -22.900490 152.992453 -0.000000 0.000001 -10.346595 -54.538938 -8.525551 -6.958903 0.000001 0.000001 -12.562597 445.583674 -25.664842 -57.127518 2.047995 -0.047204 -2.693195 5.041485 -2.732080 -21.347457 -0.000001 -0.000008 -18.824396 202.728443 166.993166 -182.621309 -0.000002 -0.000001 -19.078203 -68.411694 41.560031 34.519144 -2.129890 -0.022301 -2.538302 -362.623622 -3.242265 6.196898 -0.000005 0.000001 -18.644602 141.981683 167.808158 174.033247 -0.000003 0.000000 -18.801399 34.391690 26.822255 5.786336
23.026188 58.622314 46.705555 158.543157 2.407570 -0.841660 -0.160404 1.630010 7.806295 -10.266807 2.973659 6.828997 0.000010 0.000002 3.198000 6.698218 0.562605 0.218258 -0.000000 -0.000007 7.440704 24.736162 25.268476 -6.869728 -0.000005 0.000005 2.173900 4.788391 2.522205 6.342843 2.426397 -1.880101 4.759396 22.211036 -22.581673 -30.435664 4.420195 0.000001 -0.000004 -33.211303 -14.146087 -108.359920 0.000001 -0.000010 -10.347092 24.055769 -21.454959 1.370076 -0.000010 -0.000003 -12.496314 -231.170648 18.284657 71.593729 -2.781497 -1.903807 5.072604 -9.303549 4.434383 21.116343 -4.012092 -0.000001 -0.000013 53.313626 -22.887206 152.943440 0.000002 0.000006 -10.346606 -54.718493 -8.661394 -7.069683 -0.000008 0.000001 -12.562597 445.761778 -25.579687 -57.107389 2.047997 -0.047195 -2.693201 5.332925 -2.979585 -21.307853 0.000000 0.000004 -18.824392 202.683473 166.912461 -182.707069 -0.000002 0.000004 -19.078199 -68.503785 41.470095 34.641210 -2.129894 -0.022291 -2.538308 -362.811480 -3.529821 6.179848 0.000003 -0.000005 -18.644604 142.096157 167.698138 174.130086 0.000002 0.000004 -18.801401 34.655519 26.870538 5.792117
23.011898 58.592216 46.704559 158.339727 2.355195 -0.817382 -0.160401 1.629996 7.806301 -9.950938 3.067150 6.828797 0.000003 0.000003 3.198001 6.549016 0.508773 0.213459 -0.000006 0.000003 7.440706 24.581946 25.361155 -6.832417 -0.000001 -0.000003 2.173915 4.879434 2.539975 6.321888 2.426402 -1.880098 4.759398 22.139208 -22.183476 -30.382611 4.420200 0.000004 -0.000002 -33.159762 -14.198868 -108.593608 0.000002 -0.000002 -10.347093 24.244779 -21.297881 1.312209 0.000000 -0.000000 -12.496308 -231.303755 18.390943 71.520837 -2.781502 -1.903799 5.072604 -9.103570 4.612734 21.063282 -4.012095 0.000007 -0.000005 53.107255 -22.842750 152.891995 -0.000002 0.000001 -10.346595 -54.877623 -8.638580 -6.935767 -0.000002 0.000003 -12.562602 445.666947 -25.750879 -56.816519 2.047997 -0.047204 -2.693195 5.665335 -3.093245 -21.302009 -0.000000 0.000001 -18.824400 202.574231 166.805459 -182.801790 0.000001 -0.000001 -19.078203 -68.589975 41.374274 34.721291 -2.129896 -0.022300 -2.538298 -363.129821 -3.678478 6.150990 0.000004 -0.000005 -18.644596 142.111457 167.560086 174.263821 -0.000003 0.000003 -18.801399 35.150472 26.817027 5.839917
